<svg width="1449" height="114" viewBox="0 0 1449 114" fill="none" xmlns="http://www.w3.org/2000/svg">
<rect width="799" height="114" fill="#0D0D0D"/>
<path d="M99.976 71.464H103.432C104.296 71.464 104.728 71.032 104.728 70.168V41.656C104.728 41.208 104.616 40.888 104.392 40.696C104.2 40.472 103.88 40.36 103.432 40.36H99.976V38.824H126.76L126.952 50.824H125.752C125.752 50.184 125.608 49.096 125.32 47.56C125.064 46.024 124.536 44.648 123.736 43.432C122.392 41.384 120.504 40.36 118.072 40.36H110.44C109.992 40.36 109.656 40.472 109.432 40.696C109.24 40.888 109.144 41.208 109.144 41.656V54.568H112.84C114.472 54.568 115.64 53.704 116.344 51.976C117.08 50.216 117.448 48.376 117.448 46.456H118.696V64.216H117.448C117.448 62.296 117.08 60.472 116.344 58.744C115.64 56.984 114.472 56.104 112.84 56.104H109.144V69.88C109.144 70.36 109.24 70.744 109.432 71.032C109.656 71.32 109.992 71.464 110.44 71.464H114.664V73H99.976V71.464ZM137.873 73.576C136.113 73.576 134.497 73.064 133.025 72.04C131.553 70.984 130.385 69.576 129.521 67.816C128.689 66.056 128.273 64.136 128.273 62.056C128.273 59.976 128.689 58.056 129.521 56.296C130.385 54.536 131.553 53.144 133.025 52.12C134.497 51.064 136.113 50.536 137.873 50.536C139.633 50.536 141.249 51.064 142.721 52.12C144.193 53.144 145.345 54.536 146.177 56.296C147.041 58.056 147.473 59.976 147.473 62.056C147.473 64.136 147.041 66.056 146.177 67.816C145.345 69.576 144.193 70.984 142.721 72.04C141.249 73.064 139.633 73.576 137.873 73.576ZM137.873 72.424C139.793 72.424 141.169 71.528 142.001 69.736C142.833 67.912 143.249 65.352 143.249 62.056C143.249 58.76 142.833 56.216 142.001 54.424C141.169 52.6 139.793 51.688 137.873 51.688C135.953 51.688 134.577 52.6 133.745 54.424C132.913 56.216 132.497 58.76 132.497 62.056C132.497 65.352 132.913 67.912 133.745 69.736C134.577 71.528 135.953 72.424 137.873 72.424ZM160.821 73.576C158.485 73.576 156.821 72.856 155.829 71.416C154.869 69.976 154.389 68.248 154.389 66.232V53.32C154.389 52.936 154.309 52.664 154.149 52.504C153.989 52.344 153.717 52.264 153.333 52.264H151.317V51.112H157.845V67.144C157.845 68.552 158.117 69.752 158.661 70.744C159.237 71.736 160.197 72.232 161.541 72.232C162.661 72.232 163.653 71.848 164.517 71.08C165.413 70.28 166.101 69.208 166.581 67.864C167.093 66.488 167.349 64.968 167.349 63.304V53.32C167.349 52.936 167.269 52.664 167.109 52.504C166.949 52.344 166.677 52.264 166.293 52.264H164.277V51.112H170.805V70.792C170.805 71.176 170.885 71.448 171.045 71.608C171.205 71.768 171.477 71.848 171.861 71.848H173.877V73H167.349V69.064L167.157 69.016C166.421 70.552 165.509 71.704 164.421 72.472C163.333 73.208 162.133 73.576 160.821 73.576ZM177.246 71.848H179.262C179.646 71.848 179.918 71.768 180.078 71.608C180.238 71.448 180.318 71.176 180.318 70.792V53.32C180.318 52.936 180.238 52.664 180.078 52.504C179.918 52.344 179.646 52.264 179.262 52.264H177.246V51.112H183.774V55.048L183.966 55.096C184.702 53.56 185.614 52.424 186.702 51.688C187.79 50.92 188.99 50.536 190.302 50.536C192.638 50.536 194.286 51.256 195.246 52.696C196.238 54.136 196.734 55.864 196.734 57.88V70.792C196.734 71.176 196.814 71.448 196.974 71.608C197.134 71.768 197.406 71.848 197.79 71.848H199.806V73H190.206V71.848H192.222C192.606 71.848 192.878 71.768 193.038 71.608C193.198 71.448 193.278 71.176 193.278 70.792V56.968C193.278 55.56 192.99 54.36 192.414 53.368C191.87 52.376 190.926 51.88 189.582 51.88C188.462 51.88 187.454 52.28 186.558 53.08C185.694 53.848 185.006 54.92 184.494 56.296C184.014 57.64 183.774 59.144 183.774 60.808V70.792C183.774 71.176 183.854 71.448 184.014 71.608C184.174 71.768 184.446 71.848 184.83 71.848H186.846V73H177.246V71.848ZM212.096 73.576C210.592 73.576 209.184 73.08 207.872 72.088C206.592 71.064 205.568 69.672 204.8 67.912C204.032 66.152 203.648 64.2 203.648 62.056C203.648 59.912 204.032 57.96 204.8 56.2C205.568 54.44 206.592 53.064 207.872 52.072C209.184 51.048 210.592 50.536 212.096 50.536C213.344 50.536 214.464 50.952 215.456 51.784C216.448 52.584 217.184 53.56 217.664 54.712L217.856 54.664V41.032C217.856 40.648 217.776 40.376 217.616 40.216C217.456 40.056 217.184 39.976 216.8 39.976H213.344V38.824H221.312V70.792C221.312 71.176 221.392 71.448 221.552 71.608C221.712 71.768 221.984 71.848 222.368 71.848H224.864V73H217.856V69.448L217.664 69.4C217.056 70.68 216.272 71.704 215.312 72.472C214.384 73.208 213.312 73.576 212.096 73.576ZM212.624 72.232C213.584 72.232 214.464 71.88 215.264 71.176C216.064 70.472 216.688 69.512 217.136 68.296C217.616 67.048 217.856 65.704 217.856 64.264V59.848C217.856 58.408 217.616 57.08 217.136 55.864C216.688 54.616 216.064 53.64 215.264 52.936C214.464 52.232 213.584 51.88 212.624 51.88C211.056 51.88 209.872 52.76 209.072 54.52C208.272 56.28 207.872 58.792 207.872 62.056C207.872 65.32 208.272 67.832 209.072 69.592C209.872 71.352 211.056 72.232 212.624 72.232ZM238.614 73.576C235.638 73.576 233.238 72.568 231.414 70.552C229.622 68.536 228.726 65.736 228.726 62.152C228.726 60.104 229.126 58.2 229.926 56.44C230.726 54.648 231.83 53.224 233.238 52.168C234.678 51.08 236.278 50.536 238.038 50.536C239.99 50.536 241.59 51.064 242.838 52.12C244.086 53.176 244.982 54.52 245.526 56.152C246.102 57.752 246.39 59.4 246.39 61.096C246.39 61.448 246.278 61.688 246.054 61.816C245.83 61.912 245.446 61.96 244.902 61.96H232.95C232.95 65.16 233.398 67.704 234.294 69.592C235.222 71.48 236.726 72.424 238.806 72.424C240.278 72.424 241.654 71.864 242.934 70.744C244.246 69.624 245.078 67.88 245.43 65.512H246.582C246.39 67.848 245.574 69.784 244.134 71.32C242.726 72.824 240.886 73.576 238.614 73.576ZM242.262 60.808C242.262 58.248 241.926 56.088 241.254 54.328C240.582 52.568 239.478 51.688 237.942 51.688C236.31 51.688 235.062 52.584 234.198 54.376C233.366 56.136 232.95 58.28 232.95 60.808H242.262ZM259.252 73.576C257.748 73.576 256.34 73.08 255.028 72.088C253.748 71.064 252.724 69.672 251.956 67.912C251.188 66.152 250.804 64.2 250.804 62.056C250.804 59.912 251.188 57.96 251.956 56.2C252.724 54.44 253.748 53.064 255.028 52.072C256.34 51.048 257.748 50.536 259.252 50.536C260.5 50.536 261.62 50.952 262.612 51.784C263.604 52.584 264.34 53.56 264.82 54.712L265.012 54.664V41.032C265.012 40.648 264.932 40.376 264.772 40.216C264.612 40.056 264.34 39.976 263.956 39.976H260.5V38.824H268.468V70.792C268.468 71.176 268.548 71.448 268.708 71.608C268.868 71.768 269.14 71.848 269.524 71.848H272.02V73H265.012V69.448L264.82 69.4C264.212 70.68 263.428 71.704 262.468 72.472C261.54 73.208 260.468 73.576 259.252 73.576ZM259.78 72.232C260.74 72.232 261.62 71.88 262.42 71.176C263.22 70.472 263.844 69.512 264.292 68.296C264.772 67.048 265.012 65.704 265.012 64.264V59.848C265.012 58.408 264.772 57.08 264.292 55.864C263.844 54.616 263.22 53.64 262.42 52.936C261.62 52.232 260.74 51.88 259.78 51.88C258.212 51.88 257.028 52.76 256.228 54.52C255.428 56.28 255.028 58.792 255.028 62.056C255.028 65.32 255.428 67.832 256.228 69.592C257.028 71.352 258.212 72.232 259.78 72.232ZM293.367 45.16C292.663 45.16 292.071 44.92 291.591 44.44C291.111 43.96 290.871 43.368 290.871 42.664C290.871 41.928 291.111 41.336 291.591 40.888C292.071 40.408 292.663 40.168 293.367 40.168C294.103 40.168 294.695 40.408 295.143 40.888C295.623 41.336 295.863 41.928 295.863 42.664C295.863 43.368 295.623 43.96 295.143 44.44C294.695 44.92 294.103 45.16 293.367 45.16ZM288.855 71.848H290.871C291.255 71.848 291.527 71.768 291.687 71.608C291.847 71.448 291.927 71.176 291.927 70.792V53.32C291.927 52.936 291.847 52.664 291.687 52.504C291.527 52.344 291.255 52.264 290.871 52.264H288.855V51.112H295.383V70.792C295.383 71.176 295.463 71.448 295.623 71.608C295.783 71.768 296.055 71.848 296.439 71.848H298.455V73H288.855V71.848ZM301.793 71.848H303.809C304.193 71.848 304.465 71.768 304.625 71.608C304.785 71.448 304.865 71.176 304.865 70.792V53.32C304.865 52.936 304.785 52.664 304.625 52.504C304.465 52.344 304.193 52.264 303.809 52.264H301.793V51.112H308.321V55.048L308.513 55.096C309.249 53.56 310.161 52.424 311.249 51.688C312.337 50.92 313.537 50.536 314.849 50.536C317.185 50.536 318.833 51.256 319.793 52.696C320.785 54.136 321.281 55.864 321.281 57.88V70.792C321.281 71.176 321.361 71.448 321.521 71.608C321.681 71.768 321.953 71.848 322.337 71.848H324.353V73H314.753V71.848H316.769C317.153 71.848 317.425 71.768 317.585 71.608C317.745 71.448 317.825 71.176 317.825 70.792V56.968C317.825 55.56 317.537 54.36 316.961 53.368C316.417 52.376 315.473 51.88 314.129 51.88C313.009 51.88 312.001 52.28 311.105 53.08C310.241 53.848 309.553 54.92 309.041 56.296C308.561 57.64 308.321 59.144 308.321 60.808V70.792C308.321 71.176 308.401 71.448 308.561 71.608C308.721 71.768 308.993 71.848 309.377 71.848H311.393V73H301.793V71.848ZM343.328 73C343.328 71.24 343.664 69.496 344.336 67.768C345.008 66.04 346.512 64.184 348.848 62.2L353.456 58.264C354.96 57.016 356.096 55.64 356.864 54.136C357.664 52.632 358.064 50.904 358.064 48.952C358.064 46.456 357.456 44.536 356.24 43.192C355.024 41.816 353.296 41.128 351.056 41.128C350.032 41.128 349.04 41.368 348.08 41.848C347.152 42.328 346.384 42.968 345.776 43.768C345.2 44.536 344.912 45.336 344.912 46.168C344.912 46.936 345.088 47.512 345.44 47.896C345.792 48.248 346.272 48.472 346.88 48.568C347.904 48.728 348.656 49.08 349.136 49.624C349.648 50.136 349.904 50.76 349.904 51.496C349.904 52.104 349.68 52.616 349.232 53.032C348.816 53.448 348.224 53.656 347.456 53.656C346.144 53.656 345.056 53.144 344.192 52.12C343.328 51.064 342.896 49.688 342.896 47.992C342.896 46.36 343.296 44.888 344.096 43.576C344.928 42.264 346.064 41.24 347.504 40.504C348.976 39.768 350.608 39.4 352.4 39.4C354.448 39.4 356.288 39.784 357.92 40.552C359.552 41.32 360.832 42.424 361.76 43.864C362.688 45.304 363.152 47 363.152 48.952C363.152 50.904 362.464 52.664 361.088 54.232C359.712 55.8 357.904 57.384 355.664 58.984L350.96 62.632C349.616 63.56 348.576 64.456 347.84 65.32C347.136 66.152 346.784 67.016 346.784 67.912C346.784 68.68 347.28 69.064 348.272 69.064H357.344C358.624 69.064 359.52 68.792 360.032 68.248C360.576 67.672 360.944 66.872 361.136 65.848L361.664 63.016H362.72L362.048 73H343.328ZM381.108 73.768C378.836 73.768 376.82 72.952 375.06 71.32C373.3 69.688 371.924 67.56 370.932 64.936C369.972 62.28 369.492 59.496 369.492 56.584C369.492 53.672 369.972 50.904 370.932 48.28C371.924 45.624 373.3 43.48 375.06 41.848C376.82 40.216 378.836 39.4 381.108 39.4C383.348 39.4 385.348 40.216 387.108 41.848C388.9 43.48 390.276 45.624 391.236 48.28C392.228 50.904 392.724 53.672 392.724 56.584C392.724 59.496 392.228 62.28 391.236 64.936C390.276 67.56 388.9 69.688 387.108 71.32C385.348 72.952 383.348 73.768 381.108 73.768ZM381.108 72.232C383.764 72.232 385.508 70.728 386.34 67.72C387.204 64.712 387.636 61 387.636 56.584C387.636 52.168 387.204 48.456 386.34 45.448C385.508 42.44 383.764 40.936 381.108 40.936C378.452 40.936 376.692 42.44 375.828 45.448C374.996 48.424 374.58 52.136 374.58 56.584C374.58 61.032 374.996 64.76 375.828 67.768C376.692 70.744 378.452 72.232 381.108 72.232ZM400.791 71.464H405.399C405.879 71.464 406.215 71.368 406.407 71.176C406.631 70.984 406.743 70.664 406.743 70.216V46.648H400.791V44.92H403.431C405.159 44.92 406.551 44.456 407.607 43.528C408.695 42.6 409.367 41.48 409.623 40.168H411.159V70.216C411.159 70.664 411.255 70.984 411.447 71.176C411.671 71.368 412.023 71.464 412.503 71.464H417.111V73H400.791V71.464ZM426.859 73C426.859 71.24 427.195 69.496 427.867 67.768C428.539 66.04 430.043 64.184 432.379 62.2L436.987 58.264C438.491 57.016 439.627 55.64 440.395 54.136C441.195 52.632 441.595 50.904 441.595 48.952C441.595 46.456 440.987 44.536 439.771 43.192C438.555 41.816 436.827 41.128 434.587 41.128C433.563 41.128 432.571 41.368 431.611 41.848C430.683 42.328 429.915 42.968 429.307 43.768C428.731 44.536 428.443 45.336 428.443 46.168C428.443 46.936 428.619 47.512 428.971 47.896C429.323 48.248 429.803 48.472 430.411 48.568C431.435 48.728 432.187 49.08 432.667 49.624C433.179 50.136 433.435 50.76 433.435 51.496C433.435 52.104 433.211 52.616 432.763 53.032C432.347 53.448 431.755 53.656 430.987 53.656C429.675 53.656 428.587 53.144 427.723 52.12C426.859 51.064 426.427 49.688 426.427 47.992C426.427 46.36 426.827 44.888 427.627 43.576C428.459 42.264 429.595 41.24 431.035 40.504C432.507 39.768 434.139 39.4 435.931 39.4C437.979 39.4 439.819 39.784 441.451 40.552C443.083 41.32 444.363 42.424 445.291 43.864C446.219 45.304 446.683 47 446.683 48.952C446.683 50.904 445.995 52.664 444.619 54.232C443.243 55.8 441.435 57.384 439.195 58.984L434.491 62.632C433.147 63.56 432.107 64.456 431.371 65.32C430.667 66.152 430.315 67.016 430.315 67.912C430.315 68.68 430.811 69.064 431.803 69.064H440.875C442.155 69.064 443.051 68.792 443.563 68.248C444.107 67.672 444.475 66.872 444.667 65.848L445.195 63.016H446.251L445.579 73H426.859Z" fill="white"/>
<path d="M500.632 42.472C500.344 41.672 499.976 41.128 499.528 40.84C499.08 40.52 498.504 40.36 497.8 40.36H494.824V38.824H509.032V40.36H506.728C506.28 40.36 505.896 40.488 505.576 40.744C505.256 40.968 505.096 41.24 505.096 41.56C505.096 41.816 505.16 42.168 505.288 42.616L511.672 64.696L517.48 43.672L517 42.136C516.776 41.496 516.328 41.048 515.656 40.792C514.984 40.504 514.296 40.36 513.592 40.36H512.2V38.824H526.408V40.36H524.536C522.904 40.36 522.088 41.192 522.088 42.856C522.088 43.304 522.184 43.8 522.376 44.344L528.424 65.128L534.376 46.216C534.6 45.352 534.744 44.696 534.808 44.248C534.904 43.768 534.952 43.192 534.952 42.52C534.952 41.912 534.664 41.4 534.088 40.984C533.544 40.568 532.776 40.36 531.784 40.36H530.152V38.824H543.112V40.36H541.048C539.96 40.36 539.112 40.68 538.504 41.32C537.928 41.96 537.48 42.808 537.16 43.864L527.608 73.864H526.408L518.536 47.176L510.952 73.864H509.752L500.632 42.472ZM548.508 45.16C547.804 45.16 547.212 44.92 546.732 44.44C546.252 43.96 546.012 43.368 546.012 42.664C546.012 41.928 546.252 41.336 546.732 40.888C547.212 40.408 547.804 40.168 548.508 40.168C549.244 40.168 549.836 40.408 550.284 40.888C550.764 41.336 551.004 41.928 551.004 42.664C551.004 43.368 550.764 43.96 550.284 44.44C549.836 44.92 549.244 45.16 548.508 45.16ZM543.996 71.848H546.012C546.396 71.848 546.668 71.768 546.828 71.608C546.988 71.448 547.068 71.176 547.068 70.792V53.32C547.068 52.936 546.988 52.664 546.828 52.504C546.668 52.344 546.396 52.264 546.012 52.264H543.996V51.112H550.524V70.792C550.524 71.176 550.604 71.448 550.764 71.608C550.924 71.768 551.196 71.848 551.58 71.848H553.596V73H543.996V71.848ZM564.997 73.576C563.557 73.576 562.357 73.064 561.397 72.04C560.469 71.016 560.005 69.624 560.005 67.864V52.456H556.453V51.112H557.509C558.949 51.112 560.069 50.344 560.869 48.808C561.701 47.24 562.117 45.512 562.117 43.624V41.896H563.461V51.112H569.413V52.456H563.461V68.104C563.461 69.064 563.653 69.864 564.037 70.504C564.421 71.144 565.077 71.464 566.005 71.464C568.277 71.464 569.413 69.544 569.413 65.704H570.277C570.277 67.848 569.957 69.704 569.317 71.272C568.709 72.808 567.269 73.576 564.997 73.576ZM573.235 71.848H575.923C576.307 71.848 576.579 71.768 576.739 71.608C576.899 71.448 576.979 71.176 576.979 70.792V41.032C576.979 40.648 576.899 40.376 576.739 40.216C576.579 40.056 576.307 39.976 575.923 39.976H573.235V38.824H580.435V55.048L580.627 55.096C581.363 53.56 582.275 52.424 583.363 51.688C584.451 50.92 585.651 50.536 586.963 50.536C589.299 50.536 590.947 51.256 591.907 52.696C592.899 54.136 593.395 55.864 593.395 57.88V70.792C593.395 71.176 593.475 71.448 593.635 71.608C593.795 71.768 594.067 71.848 594.451 71.848H596.467V73H586.867V71.848H588.883C589.267 71.848 589.539 71.768 589.699 71.608C589.859 71.448 589.939 71.176 589.939 70.792V56.968C589.939 55.56 589.651 54.36 589.075 53.368C588.531 52.376 587.587 51.88 586.243 51.88C585.123 51.88 584.115 52.28 583.219 53.08C582.355 53.848 581.667 54.92 581.155 56.296C580.675 57.64 580.435 59.144 580.435 60.808V70.792C580.435 71.176 580.515 71.448 580.675 71.608C580.835 71.768 581.107 71.848 581.491 71.848H583.507V73H573.235V71.848ZM612.797 71.848H615.293C615.677 71.848 615.949 71.768 616.109 71.608C616.269 71.448 616.349 71.176 616.349 70.792V41.032C616.349 40.648 616.269 40.376 616.109 40.216C615.949 40.056 615.677 39.976 615.293 39.976H612.797V38.824H619.805V70.792C619.805 71.176 619.885 71.448 620.045 71.608C620.205 71.768 620.477 71.848 620.861 71.848H623.357V73H612.797V71.848ZM636.295 73.576C634.535 73.576 632.919 73.064 631.447 72.04C629.975 70.984 628.807 69.576 627.943 67.816C627.111 66.056 626.695 64.136 626.695 62.056C626.695 59.976 627.111 58.056 627.943 56.296C628.807 54.536 629.975 53.144 631.447 52.12C632.919 51.064 634.535 50.536 636.295 50.536C638.055 50.536 639.671 51.064 641.143 52.12C642.615 53.144 643.767 54.536 644.599 56.296C645.463 58.056 645.895 59.976 645.895 62.056C645.895 64.136 645.463 66.056 644.599 67.816C643.767 69.576 642.615 70.984 641.143 72.04C639.671 73.064 638.055 73.576 636.295 73.576ZM636.295 72.424C638.215 72.424 639.591 71.528 640.423 69.736C641.255 67.912 641.671 65.352 641.671 62.056C641.671 58.76 641.255 56.216 640.423 54.424C639.591 52.6 638.215 51.688 636.295 51.688C634.375 51.688 632.999 52.6 632.167 54.424C631.335 56.216 630.919 58.76 630.919 62.056C630.919 65.352 631.335 67.912 632.167 69.736C632.999 71.528 634.375 72.424 636.295 72.424ZM650.94 54.664C650.62 53.832 650.284 53.224 649.932 52.84C649.612 52.456 649.116 52.264 648.444 52.264H647.052V51.112H657.42V52.264H656.076C655.692 52.264 655.34 52.376 655.02 52.6C654.7 52.792 654.54 53.064 654.54 53.416C654.54 53.96 654.636 54.488 654.828 55L660.204 67.96L664.092 56.584C664.22 56.2 664.332 55.768 664.428 55.288C664.556 54.808 664.62 54.424 664.62 54.136C664.62 53.592 664.46 53.144 664.14 52.792C663.82 52.44 663.404 52.264 662.892 52.264H661.74V51.112H670.476V52.264H669.372C668.668 52.264 668.012 52.504 667.404 52.984C666.828 53.432 666.38 54.136 666.06 55.096L659.724 73.576H658.859L650.94 54.664ZM681.536 73.576C678.56 73.576 676.16 72.568 674.336 70.552C672.544 68.536 671.648 65.736 671.648 62.152C671.648 60.104 672.048 58.2 672.848 56.44C673.648 54.648 674.752 53.224 676.16 52.168C677.6 51.08 679.2 50.536 680.96 50.536C682.912 50.536 684.512 51.064 685.76 52.12C687.008 53.176 687.904 54.52 688.448 56.152C689.024 57.752 689.312 59.4 689.312 61.096C689.312 61.448 689.2 61.688 688.976 61.816C688.752 61.912 688.368 61.96 687.824 61.96H675.872C675.872 65.16 676.32 67.704 677.216 69.592C678.144 71.48 679.648 72.424 681.728 72.424C683.2 72.424 684.576 71.864 685.856 70.744C687.168 69.624 688 67.88 688.352 65.512H689.504C689.312 67.848 688.496 69.784 687.056 71.32C685.648 72.824 683.808 73.576 681.536 73.576ZM685.184 60.808C685.184 58.248 684.848 56.088 684.176 54.328C683.504 52.568 682.4 51.688 680.864 51.688C679.232 51.688 677.984 52.584 677.12 54.376C676.288 56.136 675.872 58.28 675.872 60.808H685.184Z" fill="white"/>
<ellipse cx="24" cy="21.5" rx="9" ry="9.5" fill="#D9D9D9"/>
<ellipse cx="24" cy="21.5" rx="9" ry="9.5" fill="#D9D9D9"/>
<ellipse cx="773" cy="93.5" rx="9" ry="9.5" fill="#D9D9D9"/>
<ellipse cx="773" cy="21.5" rx="9" ry="9.5" fill="#D9D9D9"/>
<ellipse cx="23" cy="93.5" rx="9" ry="9.5" fill="#D9D9D9"/>
<line x1="39" y1="92.5" x2="757" y2="92.5" stroke="white" stroke-width="3" stroke-dasharray="5 5"/>
<line x1="39" y1="20.5" x2="757" y2="20.5" stroke="white" stroke-width="3" stroke-dasharray="5 5"/>
<line x1="23.0001" y1="77.0232" x2="22.5001" y2="36.0183" stroke="white" stroke-width="3" stroke-dasharray="5 5"/>
<line x1="772" y1="77.0232" x2="771.5" y2="36.0183" stroke="white" stroke-width="3" stroke-dasharray="5 5"/>
</svg>
