<svg width="868" height="508" viewBox="0 0 868 508" fill="none" xmlns="http://www.w3.org/2000/svg">
<path d="M88.6 476.6H155.8C168.4 476.6 174.7 470.3 174.7 457.7V39.8C174.7 33.2667 173.3 28.6 170.5 25.8C167.7 22.5333 162.8 20.9 155.8 20.9H130.6C101.2 20.9 75.7667 35.8333 54.3 65.7C40.7667 84.8333 31.6667 108.867 27 137.8C22.3333 166.267 20 187.267 20 200.8H0.400003L6 0.599991H407.8L413.4 200.8H393.8C393.8 187.267 391.467 166.267 386.8 137.8C382.133 108.867 373.033 84.8333 359.5 65.7C338.033 35.8333 312.6 20.9 283.2 20.9H258C251 20.9 246.1 22.5333 243.3 25.8C240.5 28.6 239.1 33.2667 239.1 39.8V457.7C239.1 470.3 245.4 476.6 258 476.6H325.2V499H88.6V476.6ZM790.098 507.4C769.098 507.4 751.598 499.933 737.598 485C724.065 470.067 717.298 449.767 717.298 424.1V199.4H665.498V179.8H680.898C701.898 179.8 718.232 168.6 729.898 146.2C742.032 123.333 748.098 98.1333 748.098 70.6V45.4H767.698V179.8H854.498V199.4H767.698V427.6C767.698 441.6 770.498 453.267 776.098 462.6C781.698 471.933 791.265 476.6 804.798 476.6C837.932 476.6 854.498 448.6 854.498 392.6H867.098C867.098 423.867 862.432 450.933 853.098 473.8C844.232 496.2 823.232 507.4 790.098 507.4Z" fill="black"/>
</svg>
